<svg width="735" height="677" viewBox="0 0 735 677" fill="none" xmlns="http://www.w3.org/2000/svg">
<path fill-rule="evenodd" clip-rule="evenodd" d="M350.473 0.475902C330.494 1.7629 300.578 5.4619 291.973 7.7109C290.048 8.2139 283.298 9.8449 276.973 11.3349C265.339 14.0759 247.221 19.5449 238.973 22.8049C229.539 26.5339 217.354 31.7109 214.473 33.2149C212.823 34.0769 211.023 34.7859 210.473 34.7919C209.639 34.8009 200.058 39.8599 179.019 51.3999C175.903 53.1089 149.034 70.9169 146.513 72.9439C145.073 74.1009 137.792 79.8749 134.721 82.2939C125.942 89.2089 100.471 114.073 94.165 121.882C92.685 123.716 90.343 126.359 88.961 127.755C87.579 129.151 84.225 133.219 81.508 136.794C78.79 140.369 76.2579 143.519 75.8809 143.794C74.0879 145.102 53.53 175.953 49.477 183.417C48.02 186.099 45.517 190.544 43.914 193.294C42.311 196.044 39.809 200.769 38.354 203.794C30.758 219.583 26.973 227.747 26.973 228.336C26.973 228.696 26.352 230.41 25.593 232.143C23.585 236.727 18.356 251.417 16.462 257.794C15.564 260.819 14.4109 264.075 13.9009 265.03C13.3909 265.985 12.973 267.581 12.973 268.576C12.973 269.57 11.897 274.639 10.583 279.839C6.13795 297.419 4.79399 305.052 0.997993 334.294C-0.348007 344.668 -0.328048 379.754 1.03095 390.742C4.13595 415.849 5.34501 424.203 7.19001 433.294C8.30601 438.794 9.60094 445.213 10.0679 447.558C10.5359 449.904 11.38 452.687 11.945 453.743C12.511 454.799 12.973 457.016 12.973 458.669C12.973 460.323 13.3719 461.923 13.8599 462.224C14.3469 462.525 15.0629 464.464 15.4489 466.533C15.8359 468.602 16.5009 470.744 16.9279 471.294C17.3549 471.844 17.949 473.419 18.247 474.794C18.884 477.733 24.204 492.28 26.585 497.596C35.9 518.39 52.7229 549.581 55.1879 550.627C55.6199 550.811 55.973 551.392 55.973 551.92C55.973 552.447 56.432 553.422 56.992 554.086C57.553 554.75 60.7019 559.119 63.9909 563.794C77.4539 582.932 84.95 591.849 101.072 607.906C125.928 632.663 154.677 652.329 181.641 663.021C202.05 671.113 215.826 674.324 237.235 675.977C275.833 678.959 313.016 669.919 341.904 650.531C349.885 645.174 362.623 635.126 364.881 632.405C367.188 629.625 369.932 630.607 376.808 636.676C385.986 644.775 395.102 650.666 409.353 657.705C451.599 678.573 500.914 682.4 543.943 668.15C565.206 661.107 589.466 647.62 610.953 630.895C622.609 621.823 648.546 595.982 655.728 586.288C656.138 585.734 658.998 582.134 662.084 578.288C666.684 572.554 680.356 553.265 683.195 548.504C691.012 535.394 699.487 519.016 704.908 506.544C706.044 503.932 707.82 499.881 708.855 497.544C709.89 495.207 711.227 491.944 711.828 490.294C712.428 488.644 713.459 485.944 714.118 484.294C714.777 482.644 715.857 479.494 716.517 477.294C717.177 475.094 719.08 468.794 720.745 463.294C723.58 453.93 725.46 446.661 726.563 440.794C727.2 437.406 729.872 423.445 731.061 417.294C734.191 401.099 735.977 349.898 733.991 333.294C731.091 309.041 728.286 292.051 725.325 280.794C720.467 262.327 716.85 249.896 714.998 245.294C714.555 244.194 712.728 239.244 710.937 234.294C709.147 229.344 706.555 222.819 705.179 219.794C700.056 208.536 695.937 200.138 692.917 194.794C689.672 189.053 683.376 177.736 681.512 174.294C680.255 171.974 672.724 160.534 671.966 159.794C671.685 159.519 670.284 157.494 668.853 155.294C666.488 151.657 657.907 140.482 649.683 130.331C639.967 118.335 618.454 96.7349 604.841 85.3059C600.107 81.3319 579.117 65.9169 576.332 64.3689C574.76 63.4959 572.348 61.9279 570.973 60.8869C566.231 57.2929 553.453 49.3619 546.473 45.6779C536.585 40.4589 518.123 31.2589 513.973 29.4829C495.212 21.4519 478.818 15.8549 462.318 11.8489C455.253 10.1339 448.123 8.3169 446.473 7.8119C440.579 6.0059 417.168 2.78489 399.163 1.30189C382.578 -0.0641088 363.807 -0.382098 350.473 0.475902ZM413.25 46.1939C436.68 49.5729 461.63 56.0869 483.473 64.5279C493.93 68.5689 522.935 82.3809 529.577 86.4819C556.921 103.367 576.094 117.986 593.582 135.284C603.284 144.881 615.929 159.024 619.967 164.794C621.314 166.719 623.441 169.414 624.695 170.784C625.948 172.153 626.973 173.584 626.973 173.962C626.973 174.341 627.536 175.252 628.223 175.987C629.603 177.462 638.641 190.929 644.536 200.294C649.472 208.134 660.683 230.157 664.898 240.294C666.728 244.694 668.795 249.644 669.491 251.294C671.052 254.993 677.18 273.34 679.344 280.794C680.71 285.5 681.788 289.995 685.58 306.794C686.568 311.175 688.935 326.901 690.469 339.294C693.341 362.483 691.702 394.136 686.391 418.028C685.503 422.024 684.431 427.094 684.008 429.294C682.915 434.987 678.031 452.676 677.009 454.642C676.537 455.55 675.4 458.544 674.484 461.294C673.568 464.044 672.433 467.194 671.963 468.294C671.493 469.394 670.36 472.094 669.445 474.294C665.758 483.164 658.871 497.518 654.812 504.794C653.431 507.269 650.822 511.994 649.013 515.294C647.204 518.594 643.192 525.025 640.098 529.586C637.004 534.147 634.023 538.669 633.473 539.635C630.117 545.533 614.878 564.947 607.663 572.518C599.813 580.755 589.854 584.794 577.393 584.794C571.422 584.794 561.636 582.33 556.846 579.62C550.922 576.269 536.683 564.946 526.884 555.794C519.782 549.161 518.438 548.047 507.973 540.134C484.652 522.5 467.082 513.418 447.973 509.121C438.663 507.027 421.867 506.351 411.973 507.671C397.857 509.555 381.55 516.694 373.433 524.544C371.584 526.332 369.191 527.794 368.114 527.794C367.037 527.794 363.753 525.853 360.815 523.48C353.726 517.756 346.202 513.641 336.473 510.167C328.88 507.456 327.634 507.313 311.973 507.346C297.901 507.376 294.149 507.73 286.473 509.747C281.523 511.048 277.046 512.491 276.523 512.953C276.001 513.416 274.943 513.794 274.173 513.794C271.16 513.794 256.717 520.856 247.339 526.915C231.289 537.285 221.676 544.802 203.745 561.001C189.353 574.003 183.454 578.333 175.996 581.363C167.34 584.88 155.27 585.709 147.892 583.292C135.66 579.286 130.054 575.03 118.259 560.794C108.173 548.621 106.973 547.064 106.973 546.147C106.973 545.666 105.848 544.06 104.473 542.577C103.098 541.095 101.973 539.607 101.973 539.271C101.973 538.935 100.896 537.228 99.58 535.477C98.264 533.726 96.352 530.717 95.33 528.79C94.309 526.863 92.46 523.868 91.223 522.135C89.986 520.403 88.973 518.597 88.973 518.122C88.973 517.647 87.8809 515.651 86.5469 513.687C80.1409 504.261 68.7139 481.316 63.8809 468.179C62.6909 464.942 60.8739 460.406 59.8449 458.099C58.8149 455.792 57.973 453.054 57.973 452.016C57.973 450.977 57.651 449.806 57.258 449.412C56.478 448.632 54.366 441.63 52.999 435.294C52.525 433.094 51.4099 428.144 50.5209 424.294C42.2159 388.293 41.797 343.473 49.441 308.794C50.23 305.219 51.406 299.819 52.055 296.794C52.705 293.769 54.2509 287.919 55.4909 283.794C56.7309 279.669 58.7559 272.919 59.9899 268.794C61.2249 264.669 62.564 260.844 62.966 260.294C63.368 259.744 63.9959 258.045 64.3609 256.517C64.7259 254.99 66.1709 251.165 67.5729 248.017C68.9749 244.87 70.8219 240.719 71.6779 238.794C78.7169 222.961 89.459 203.015 97.8 190.294C135.853 132.255 185.77 91.5829 250.705 65.7109C259.202 62.3249 288.552 53.2299 295.588 51.8019C319.479 46.9539 323.124 46.3909 343.473 44.4029C353.328 43.4399 402.997 44.7149 413.25 46.1939ZM230.78 203.814C223.186 211.525 216.962 218.612 216.949 219.564C216.935 220.535 235.783 240.001 259.914 263.94C283.558 287.395 303.032 307.072 303.188 307.666C303.345 308.26 300.09 312.244 295.955 316.52C291.821 320.796 274.241 338.919 256.89 356.794C239.539 374.669 223.235 391.473 220.658 394.136C218.081 396.799 215.973 399.337 215.973 399.775C215.973 401.142 245.096 428.277 246.897 428.589C247.982 428.777 252.911 424.416 260.458 416.589C290.202 385.746 323.581 351.328 335.343 339.374C352.119 322.325 355.03 317.89 355.282 308.999C355.414 304.386 354.937 301.175 353.754 298.708C352.808 296.735 337.516 280.466 319.754 262.535C301.999 244.613 279.373 221.76 269.473 211.752C250.882 192.957 247.449 189.794 245.645 189.794C245.062 189.794 238.373 196.103 230.78 203.814ZM356.078 396.168C355.279 397.131 355.011 403.307 355.2 416.424L355.473 435.294H437.473H519.473V415.294V395.294L438.35 395.038C370.215 394.823 357.044 395.004 356.078 396.168ZM328.049 552.981C334.872 556.1 339.372 560.603 342.679 567.621C349.167 581.386 341.369 599.839 324.076 611.644C310.885 620.648 295.756 626.955 278.973 630.448C267.189 632.9 237.47 633.42 226.972 631.358C217.853 629.566 210.035 627.513 203.223 625.121C198.159 623.343 197.585 620.683 201.723 618.169C209.414 613.494 224.042 602.302 231.583 595.321C232.85 594.148 235.536 591.756 249.326 579.522C258.85 571.072 274.319 560.147 282.503 556.092C284.687 555.009 289.173 553.336 292.473 552.373C295.773 551.409 298.923 550.447 299.473 550.234C300.023 550.021 305.423 549.978 311.473 550.139C320.748 550.386 323.347 550.831 328.049 552.981ZM442.618 551.871C451.572 554.584 456.721 557.062 466.571 563.4C473.338 567.753 485.125 576.605 486.973 578.721C487.248 579.036 490.848 582.196 494.973 585.743C499.098 589.29 503.276 593 504.258 593.988C506.751 596.498 528.28 612.545 535.223 617.068C538.385 619.129 540.973 621.244 540.973 621.769C540.973 623.192 537.739 624.669 528.649 627.4C504.749 634.578 475.474 634.845 451.973 628.1C443.283 625.606 435.075 622.863 433.198 621.827C432.249 621.303 428.628 619.513 425.151 617.85C416.462 613.692 405.988 606.516 400.537 600.988C394.382 594.745 389.517 583.286 390.284 576.838C391.829 563.85 400.936 554.02 414.473 550.728C420.991 549.143 435.568 549.735 442.618 551.871Z" fill="#94618E"/>
</svg>
