<svg width="756" height="1085" viewBox="0 0 756 1085" fill="none" xmlns="http://www.w3.org/2000/svg">
<path fill-rule="evenodd" clip-rule="evenodd" d="M352.838 0.228236C326.767 2.77539 303.846 5.93862 295.241 8.17602C258.576 17.7083 248.955 20.8657 223.938 31.5737C195.444 43.7717 163.78 62.6785 137.836 82.9867C122.768 94.7805 96.0559 120.911 84.6297 135.031C73.6632 148.585 57.3711 171.396 55.1674 176.284C54.596 177.55 53.042 179.731 51.7138 181.129C50.3856 182.528 49.2994 184.149 49.2994 184.731C49.2994 185.313 48.5218 186.434 47.5714 187.223C46.6211 188.012 45.8435 189.362 45.8435 190.223C45.8435 191.084 43.77 195.176 41.2357 199.314C38.7014 203.453 36.6279 207.439 36.6279 208.173C36.6279 208.905 34.5233 213.949 31.9498 219.379C25.1107 233.816 24.2986 235.818 19.3061 250.557C18.555 252.773 17.2211 256.054 16.341 257.847C15.4609 259.64 14.7409 262.008 14.7409 263.112C14.7409 264.214 14.0243 267.41 13.1477 270.215C8.52488 285.016 2.82744 314.825 1.38981 331.739C-0.091598 349.167 -0.567346 634.186 0.849552 655.891C2.3563 678.983 5.81436 701.415 10.171 716.345C10.7251 718.245 11.4428 721.31 11.7654 723.154C12.0891 725 12.8897 727.046 13.5463 727.703C14.2041 728.36 14.7409 730.317 14.7409 732.053C14.7409 733.79 15.2592 735.53 15.8928 735.921C16.5264 736.313 17.0482 737.509 17.0517 738.58C17.0563 739.651 17.8338 742.012 18.7796 743.825C19.7265 745.64 20.5006 747.891 20.5006 748.83C20.5006 749.768 21.2782 752.04 22.2285 753.88C23.1789 755.719 24.734 758.729 25.6844 760.568C26.6348 762.408 27.4123 764.529 27.4123 765.283C27.4123 766.034 29.4858 770.762 32.0201 775.786C34.5544 780.81 36.6279 785.459 36.6279 786.119C36.6279 786.778 37.8583 788.967 39.3615 790.983C40.866 793 43.4993 797.239 45.2145 800.406C48.7476 806.929 62.1332 827.086 65.1582 830.438C66.256 831.655 68.6844 834.722 70.5541 837.256C79.6671 849.601 104.816 875.387 118.236 886.144C122.254 889.366 126.202 892.661 127.011 893.469C127.819 894.277 134.205 898.8 141.202 903.521C154.166 912.266 157.583 915.94 157.583 921.137C157.583 922.743 158.056 924.351 158.634 924.708C159.213 925.066 160.036 927.558 160.465 930.245C161.642 937.631 165.781 949.228 170.428 958.164C178.609 973.894 180.102 976.632 180.784 977.164C181.19 977.481 182.642 979.813 184.011 982.346C187.089 988.04 188.697 990.567 191.245 993.714C192.336 995.062 195.109 998.496 197.407 1001.35C203.615 1009.04 220.545 1026.16 227.988 1032.27C234.683 1037.76 249.477 1048.11 256.65 1052.32C263.153 1056.14 290.065 1069.29 291.382 1069.29C292.045 1069.29 294.222 1070.01 296.219 1070.89C300.864 1072.95 308.831 1075.31 321.16 1078.3C326.545 1079.61 334.58 1081.59 339.015 1082.7C351.237 1085.77 408.73 1085.76 421.955 1082.69C461.514 1073.49 487.866 1061.95 518.354 1040.5C529.251 1032.83 553.906 1009.46 560.88 1000.19C563.025 997.344 565.155 994.846 565.613 994.642C566.071 994.438 567.593 991.977 568.993 989.172C570.394 986.368 571.907 984.073 572.355 984.073C572.802 984.073 573.472 983.167 573.844 982.058C574.502 980.099 576.881 976.024 578.044 974.861C578.66 974.246 587.622 955.874 590.121 950.103C590.945 948.203 592.452 944.757 593.471 942.445C594.49 940.132 595.324 937.638 595.324 936.904C595.324 935.076 598.698 924.084 600.014 921.62C600.602 920.52 601.083 918.541 601.083 917.225C601.083 913.088 603.11 910.757 611.094 905.717C621.976 898.847 634.311 889.594 642.183 882.397C645.871 879.024 650.901 874.482 653.359 872.305C657.592 868.555 662.585 863.469 673.632 851.649C676.295 848.799 680.865 843.358 683.788 839.558C686.709 835.758 689.418 832.39 689.807 832.073C691.714 830.518 700.151 818.45 700.151 817.276C700.151 816.537 701.706 814.304 703.607 812.316C705.508 810.328 707.063 808.269 707.063 807.74C707.063 807.213 709.018 803.533 711.406 799.563C713.795 795.593 717.21 789.236 718.995 785.436C720.78 781.636 722.718 777.75 723.299 776.8C723.881 775.85 724.67 774.295 725.053 773.345C725.435 772.395 726.939 769.027 728.391 765.861C735.534 750.293 747.381 714.782 747.381 708.933C747.381 707.502 748.118 704.697 749.019 702.701C749.92 700.705 750.962 697 751.334 694.467C751.707 691.933 752.914 683.901 754.016 676.618C755.848 664.514 756.018 649.666 755.999 503.89C755.978 345.436 755.608 327.446 752.003 309.284C751.436 306.434 750.148 299.957 749.14 294.89C746.911 283.694 744.044 272.511 742.761 270.014C742.24 268.998 741.451 265.753 741.008 262.803C740.566 259.852 739.745 257.154 739.185 256.808C738.624 256.462 738.165 254.944 738.165 253.435C738.165 251.927 737.647 250.372 737.013 249.981C736.38 249.589 735.858 248.393 735.855 247.322C735.85 246.251 735.072 243.89 734.127 242.077C733.18 240.262 732.406 237.9 732.406 236.827C732.406 235.754 731.644 233.87 730.715 232.64C729.784 231.412 729.006 229.303 728.987 227.955C728.966 226.607 728.172 224.861 727.222 224.072C726.272 223.283 725.494 221.728 725.494 220.617C725.494 219.506 724.716 217.951 723.766 217.163C722.816 216.374 722.038 215.008 722.038 214.127C722.038 212.682 721.358 211.077 718.451 205.647C717.942 204.697 716.251 201.329 714.693 198.163C713.136 194.996 710.522 190.439 708.886 188.036C707.249 185.633 705.911 183.349 705.911 182.963C705.911 182.576 704.615 180.561 703.031 178.484C701.447 176.408 700.151 173.898 700.151 172.906C700.151 171.914 699.667 171.102 699.076 171.102C698.485 171.102 697.711 170.195 697.355 169.087C696.787 167.316 694.695 164.48 689.528 158.473C688.728 157.544 687.292 155.386 686.337 153.676C685.382 151.967 682.974 148.582 680.987 146.153C679 143.725 674.249 137.83 670.431 133.053C664.382 125.488 631.632 92.7987 630.101 92.7987C629.791 92.7987 627.833 91.0427 625.748 88.8962C623.663 86.751 619.581 83.392 616.678 81.4344C613.777 79.4757 610.764 77.3396 609.986 76.6855C577.876 49.7412 514.794 19.8041 469.185 9.86531C466.651 9.31373 460.949 8.03671 456.514 7.02798C437.52 2.70864 414.304 0.441289 385.669 0.107349C370.146 -0.0745906 355.372 -0.0193403 352.838 0.228236ZM420.018 44.4408C429.723 45.7051 438.631 47.2585 439.813 47.8907C440.996 48.5241 443.432 49.0411 445.228 49.0411C450.846 49.0411 475.772 55.1453 483.008 58.2935C484.276 58.8451 487.127 59.7663 489.344 60.3409C500.3 63.1817 525.05 74.3652 545.584 85.7549C550.856 88.6786 556.299 91.6864 557.679 92.4383C573.037 100.799 601.429 123.213 619.832 141.502C639.023 160.576 664.42 194.097 672.792 211.405C673.558 212.988 674.46 214.543 674.795 214.86C676.132 216.119 687.586 241.196 690.312 248.829C691.442 251.996 693.023 256.141 693.823 258.041C694.623 259.941 695.9 263.569 696.659 266.102C697.42 268.635 698.568 272.263 699.213 274.163C699.857 276.063 700.63 278.913 700.931 280.496C701.23 282.079 701.916 284.411 702.453 285.678C702.988 286.945 703.746 290.263 704.136 293.053C704.525 295.842 705.212 298.692 705.661 299.387C706.111 300.08 707.165 304.793 708.004 309.86C708.843 314.926 710.003 321.922 710.583 325.405C712.855 339.052 714.075 361.246 713.37 376.072C712.753 389.025 709.807 413.576 707.773 422.708C707.491 423.975 706.392 429.416 705.331 434.799C704.269 440.183 702.964 445.43 702.431 446.461C701.897 447.491 701.107 450.217 700.675 452.519C700.243 454.821 699.43 456.988 698.869 457.335C698.307 457.681 697.847 459.131 697.847 460.557C697.847 461.981 697.086 464.153 696.156 465.383C695.225 466.611 694.448 468.507 694.428 469.594C694.407 470.681 693.658 473.272 692.759 475.351C691.862 477.431 690.244 481.206 689.166 483.739C687.406 487.869 684.216 494.56 680.928 501.012C680.283 502.278 678.775 505.387 677.58 507.921C673.366 516.842 652.323 550.166 649.585 552.254C649.169 552.571 647.029 555.161 644.828 558.008C629.768 577.492 609.46 597.962 591.705 611.554C582.484 618.613 580.293 619.823 578.791 618.685C577.795 617.932 573.981 613.139 570.314 608.036C559.448 592.919 551.616 584.198 537.958 572.014C517.629 553.879 495.183 538.876 477.249 531.435C460.679 524.56 447.851 519.989 440.386 518.297C436.585 517.437 430.624 515.962 427.139 515.021C416.865 512.246 393.38 509.646 378.939 509.684C344.727 509.776 306.077 518.676 275.082 533.601C262.458 539.678 236.952 555.606 229.58 562.016C227.679 563.668 223.826 566.941 221.017 569.289C209.337 579.051 192.883 596.673 185.908 606.889C180.432 614.91 176.796 619.042 175.213 619.042C173.67 619.042 164.493 612.467 157.583 606.408C139.748 590.77 134.061 585.212 122.852 572.462C120.096 569.327 116.934 565.828 115.824 564.689C114.715 563.549 113.809 562.1 113.809 561.466C113.809 560.833 113.274 560.315 112.621 560.315C111.967 560.315 111.087 559.407 110.663 558.3C110.24 557.192 108.925 555.248 107.744 553.981C104.767 550.792 91.9215 531.535 91.9215 530.262C91.9215 529.691 91.4158 529.224 90.7984 529.224C90.1809 529.224 88.6062 527.021 87.2999 524.33C85.9936 521.639 83.3856 516.845 81.5045 513.678C79.6245 510.512 76.2423 504.034 73.9891 499.284C71.737 494.534 69.4066 489.749 68.8122 488.649C68.2178 487.549 67.7306 485.669 67.7306 484.471C67.7306 483.274 66.953 481.649 66.0026 480.86C65.0523 480.071 64.2747 478.428 64.2747 477.207C64.2747 475.987 63.5581 473.589 62.6815 471.878C61.8049 470.168 59.675 464.365 57.9494 458.981C56.2238 453.598 54.2804 447.898 53.633 446.315C52.9844 444.731 51.6989 439.809 50.7761 435.375C49.8546 430.942 48.5794 424.983 47.9446 422.133C47.3099 419.283 46.5646 415.396 46.2882 413.496C43.9013 397.055 43.1572 387.42 42.7759 368.011C42.4096 349.368 42.739 343.015 44.7169 330.587C46.0266 322.354 47.538 312.767 48.076 309.284C48.6139 305.801 49.6277 301.492 50.3293 299.709C51.0296 297.927 51.6033 294.751 51.6033 292.653C51.6033 290.555 52.3808 288.194 53.3312 287.405C54.315 286.589 55.0591 284.078 55.0591 281.575C55.0591 279.156 55.5325 276.885 56.1108 276.528C56.6891 276.17 57.5127 273.808 57.9401 271.278C58.3675 268.748 59.19 266.678 59.7683 266.678C60.3466 266.678 60.8223 265.252 60.8258 263.511C60.8304 261.77 61.5503 258.97 62.4281 257.29C63.3047 255.608 64.6641 252.24 65.4497 249.805C66.2342 247.368 67.5266 244.079 68.3214 242.496C69.1163 240.913 72.1782 234.694 75.1249 228.678C78.0716 222.661 82.8108 213.593 85.655 208.526C88.4991 203.46 91.319 198.149 91.9215 196.723C92.524 195.298 93.548 194.132 94.1966 194.132C94.8463 194.132 95.3854 193.485 95.3958 192.693C95.4061 191.902 96.9613 189.5 98.8516 187.354C100.742 185.21 102.29 183.138 102.29 182.748C102.291 182.36 103.587 180.536 105.17 178.695C106.754 176.855 108.049 175.037 108.049 174.653C108.049 174.271 109.232 172.667 110.678 171.09C112.122 169.513 114.836 166.15 116.706 163.617C125.412 151.826 161.469 117.655 174.425 108.92C175.834 107.97 182.34 103.607 188.883 99.2253C195.427 94.8427 201.04 90.9563 201.357 90.589C202.17 89.6447 238.5 71.8054 247.004 68.1747C255.615 64.4979 286.8 54.155 292.361 53.1313C294.578 52.7225 299.503 51.6781 303.304 50.8087C315.937 47.9218 327.381 45.8053 337.863 44.4166C343.565 43.6623 348.749 42.8793 349.382 42.6789C350.016 42.4786 362.198 42.2748 376.453 42.2276C396.115 42.1619 406.632 42.6962 420.018 44.4408ZM237.812 204.788C230.433 211.915 224.396 218.616 224.396 219.679C224.396 220.742 240.801 237.839 260.851 257.674C308.117 304.433 313.075 309.54 313.087 311.48C313.091 312.371 302.599 323.694 289.769 336.642C260.165 366.517 264.558 362.119 242.455 384.001L223.396 402.87L225.306 405.88C226.356 407.536 228.232 409.81 229.472 410.935C230.713 412.06 236.053 417.112 241.339 422.163C246.624 427.213 251.719 431.345 252.66 431.345C255.063 431.345 362.63 323.029 362.63 320.609C362.63 319.522 363.148 318.312 363.782 317.92C365.451 316.889 365.195 307.529 363.379 303.202C362.483 301.066 340.887 278.442 312.405 249.801C266.094 203.233 254.232 191.829 252.102 191.829C251.622 191.829 245.191 197.661 237.812 204.788ZM368.02 401.008C366.91 402.117 367.159 440.373 368.28 441.065C368.751 441.356 405.904 441.677 450.84 441.778L532.542 441.961L533.118 422.986C533.435 412.55 533.538 403.223 533.346 402.26C533.039 400.712 523.387 400.486 450.934 400.332C405.798 400.237 368.486 400.541 368.02 401.008ZM49.2798 544.481C49.2902 545.589 49.6944 546.497 50.1782 546.497C50.6609 546.497 51.5686 547.495 52.1941 548.714C55.718 555.59 75.3128 582.897 82.0136 590.272C84.6124 593.131 88.5521 597.762 90.7696 600.563C95.367 606.369 118.707 630.039 126.48 636.779C129.331 639.251 136.07 644.554 141.455 648.564C156.521 659.777 158.22 661.516 156.621 664.075C155.882 665.256 155.261 666.877 155.24 667.678C155.218 668.478 154.199 671.206 152.975 673.739C151.75 676.273 150.732 679.26 150.71 680.377C150.688 681.494 150.189 683.307 149.601 684.407C148.53 686.406 146.429 697.352 143.584 715.77C142.752 721.153 142.062 734.626 142.051 745.709L142.031 765.861L162.038 766.176C175.339 766.386 182.558 766.068 183.573 765.226C184.718 764.276 185.216 758.15 185.565 740.728C186.027 717.657 187.106 709.359 191.503 695.042C192.573 691.559 193.743 687.154 194.105 685.254C194.466 683.354 195.468 680.777 196.331 679.528C197.195 678.28 197.901 676.298 197.901 675.127C197.901 672.287 212.47 644.467 215.21 642.073C215.573 641.756 218.346 637.739 221.373 633.148C224.4 628.557 227.243 624.8 227.691 624.8C228.14 624.8 229.354 623.375 230.389 621.633C232.876 617.447 246.395 603.554 254.346 597.012C264.004 589.066 281.453 577.942 292.361 572.779C314.181 562.45 320.006 560.589 347.654 555.116C357.346 553.198 393.747 552.832 406.404 554.526C438.095 558.767 474.212 574.742 500.288 596.053C511.259 605.02 526.628 620.855 531.495 628.206C533.19 630.766 535.026 632.86 535.575 632.86C536.125 632.86 536.574 633.327 536.574 633.897C536.574 634.466 538.408 637.655 540.649 640.986C545.246 647.814 558.461 674.439 558.461 676.873C558.461 677.745 558.874 678.953 559.378 679.554C561.081 681.587 564.957 694.612 568.441 710.012C569.439 714.426 570.41 726.945 570.808 740.527C571.369 759.725 571.787 763.796 573.323 764.989C575.537 766.71 609.708 766.834 612.887 765.133C614.654 764.187 614.9 762.221 614.85 749.411C614.767 727.527 613.421 715.595 608.132 689.86C607.611 687.327 606.645 683.959 605.985 682.376C605.325 680.792 603.845 676.388 602.697 672.588C601.549 668.788 600.199 665.187 599.695 664.585C597.937 662.484 598.835 659.904 602.115 657.618C603.934 656.351 609.242 652.665 613.908 649.426C628.503 639.298 657.899 610.779 674.232 590.898C676.766 587.814 679.489 584.63 680.28 583.824C681.072 583.018 681.72 581.966 681.72 581.487C681.72 581.006 683.676 578.25 686.067 575.358C692.325 567.793 703.607 550.565 703.607 548.575C703.607 545.925 711.048 537.916 712.613 538.882C713.63 539.51 713.956 553.164 713.902 592.913C713.827 647.08 713.127 662.674 709.986 680.073C709.015 685.456 707.89 691.933 707.485 694.467C707.082 697 706.301 699.646 705.751 700.347C705.201 701.049 704.452 704.153 704.088 707.246C703.724 710.34 703.021 713.394 702.523 714.033C702.026 714.671 700.695 718.303 699.562 722.103C696.711 731.681 688.648 751.661 686.747 753.861C685.883 754.86 685.176 756.545 685.176 757.603C685.176 758.661 684.657 759.527 684.024 759.527C683.39 759.527 682.872 760.096 682.872 760.793C682.872 762.694 679.482 769.598 674.578 777.684C672.17 781.654 670.2 785.426 670.2 786.069C670.2 786.711 669.423 787.534 668.472 787.898C667.522 788.263 666.744 789.046 666.744 789.638C666.744 790.654 665.791 792.007 662.425 795.757C661.633 796.641 660.985 797.934 660.985 798.633C660.985 799.332 660.207 800.201 659.257 800.565C658.306 800.93 657.529 801.747 657.529 802.379C657.529 803.412 654.451 807.66 647.737 815.889C640.331 824.97 626.076 839.714 614.872 849.882C607.883 856.224 584.094 873.528 582.364 873.528C580.755 873.528 568.307 863.114 559.257 854.196C551.66 846.711 537.106 829.338 532.523 822.285C528.031 815.371 523.873 807.087 519.519 796.376C517.319 790.964 514.687 781.551 514.687 779.098C514.687 777.751 514.166 775.676 513.531 774.488C512.254 772.105 509.486 751.846 507.866 733.042C507.294 726.392 506.036 717.842 505.071 714.042C504.105 710.242 502.804 705.126 502.179 702.675C501.554 700.222 500.484 697.656 499.802 696.975C499.119 696.292 498.56 694.541 498.56 693.085C498.56 691.628 498.155 690.436 497.66 690.436C497.166 690.436 496.154 689.012 495.413 687.27C491.762 678.701 481.478 664.149 473.224 655.875C465.083 647.713 448.519 635.637 438.082 630.253C422.319 622.124 396.643 615.664 379.909 615.618C367.052 615.583 341.538 620.285 331.164 624.602C329.381 625.344 327.663 625.951 327.349 625.951C325.987 625.951 313.185 632.439 307.912 635.801C293.413 645.048 277.851 659.739 269.564 672.004C267.214 675.483 264.643 679.018 263.85 679.86C263.059 680.7 262.41 682.129 262.41 683.033C262.41 683.938 262.021 684.681 261.546 684.683C261.072 684.686 259.728 687.146 258.564 690.153C257.398 693.158 256.021 696.654 255.503 697.921C249.452 712.713 246.603 729.113 244.502 761.255C244.129 766.955 243.05 774.209 242.105 777.376C241.159 780.542 239.818 785.206 239.126 787.739C237.766 792.713 232.898 805.084 231.197 807.891C230.621 808.841 229.674 810.71 229.092 812.045C228.511 813.378 226.179 817.369 223.911 820.914C221.644 824.457 219.788 827.681 219.788 828.077C219.788 829.307 208.239 842.152 196.014 854.517C182.157 868.533 175.312 873.615 171.982 872.358C168.465 871.029 154.705 861.521 146.182 854.527C137.824 847.671 117.254 827.452 112.82 821.735C111.78 820.394 109.727 817.897 108.258 816.185C102.456 809.424 95.3774 799.949 95.3774 798.945C95.3774 798.361 94.3601 796.964 93.1172 795.839C90.887 793.822 79.2881 775.61 75.6491 768.414C70.7118 758.646 67.6372 751.667 67.1431 749.107C66.8459 747.558 66.0775 746.118 65.4382 745.905C64.7977 745.692 64.2747 744.328 64.2747 742.875C64.2747 741.422 63.4971 739.589 62.5468 738.8C61.5964 738.011 60.8189 736.424 60.8189 735.273C60.8189 734.12 60.3593 732.894 59.7971 732.547C59.2361 732.201 58.4343 730.097 58.0173 727.873C57.6003 725.65 56.764 723.83 56.1592 723.83C55.5544 723.83 55.0591 722.598 55.0591 721.092C55.0591 719.586 54.2816 716.494 53.3312 714.22C52.3808 711.947 51.6033 708.481 51.6033 706.518C51.6033 704.557 50.9777 701.82 50.2128 700.436C49.4479 699.053 48.4331 695.071 47.9573 691.588C47.4815 688.104 46.5634 681.886 45.9183 677.77C45.2721 673.653 44.2228 665.621 43.5857 659.921C42.3509 648.865 41.9108 542.17 43.0881 539.104C43.6883 537.539 44.1743 537.647 46.5231 539.874C48.0287 541.3 49.2683 543.374 49.2798 544.481ZM398.612 660.978C415.086 664.129 434.07 675.692 445.328 689.434C448.629 693.464 451.33 697.082 451.33 697.474C451.33 700.477 429.211 713.216 416.771 717.377C397.874 723.698 367.475 724.213 345.567 718.583C331.778 715.038 308.103 702.728 306.724 698.383C306.352 697.213 307.282 694.438 308.882 691.942C316.79 679.606 339.952 664.835 357.303 661.062C366.757 659.007 388.077 658.963 398.612 660.978ZM304.074 746.835C316.82 753.543 321.363 755.257 336.135 758.93C357.654 764.28 379.626 765.219 407.556 761.983C418.727 760.689 440.131 753.965 447.948 749.294C457.442 743.62 464.895 741.202 465.589 743.572C465.84 744.431 466.665 751.352 467.421 758.952C469.357 778.368 473.11 793.537 480.957 813.649C485.325 824.845 495.613 845.01 499.692 850.371C500.95 852.023 504.307 856.598 507.151 860.536C513.268 869.003 538.498 894.505 549.538 903.381C557.471 909.757 558.085 910.981 556.277 916.826C555.709 918.661 554.329 923.273 553.211 927.073C552.093 930.873 550.762 934.759 550.252 935.709C549.743 936.659 548.255 939.769 546.944 942.619C543.873 949.298 539.316 957.192 535.854 961.829C534.35 963.846 533.118 965.825 533.118 966.229C533.118 967.715 523.024 979.158 512.314 989.813C484.699 1017.29 447.805 1035.66 406.98 1042.26C387.98 1045.33 345.243 1043.6 337.476 1039.45C336.188 1038.76 334.074 1038.19 332.779 1038.19C329.571 1038.19 316.666 1034.11 306.184 1029.78C281.89 1019.75 260.688 1006.11 244.555 990.151C233.728 979.439 232.682 978.21 223.212 965.073C212.632 950.398 200.205 921.793 200.205 912.116C200.205 909.155 201.176 907.602 204.966 904.493C216.124 895.343 219.639 892.192 227.276 884.504C240.018 871.675 249.648 860.354 256.231 850.467C263.997 838.803 269.322 829.239 269.322 826.953C269.322 825.969 269.84 825.164 270.474 825.164C271.107 825.164 271.626 824.6 271.626 823.911C271.626 823.221 273.181 819.299 275.082 815.194C276.982 811.089 278.537 806.834 278.537 805.738C278.537 804.643 278.974 803.253 279.507 802.652C280.516 801.514 282.96 792.342 285.935 778.527C286.89 774.094 288.259 764.248 288.975 756.648C290.298 742.635 290.621 741.103 292.263 741.103C292.769 741.103 298.084 743.682 304.074 746.835Z" fill="#94618E"/>
</svg>
