<svg width="743" height="1066" viewBox="0 0 743 1066" fill="none" xmlns="http://www.w3.org/2000/svg">
<path fill-rule="evenodd" clip-rule="evenodd" d="M352.034 0.747914C331.711 1.80433 316.891 3.54118 302.012 6.61039C300.09 7.00682 297.064 7.61249 295.289 7.95621C293.514 8.29992 291.215 8.79747 290.179 9.06211C285.837 10.1723 279.022 11.8645 277.271 12.2669C276.235 12.5052 273.936 13.1124 272.161 13.6164C269.155 14.4701 267.666 14.8805 263.555 15.9885C260.061 16.9304 245.955 21.6477 242.578 23.0037C241.986 23.2415 239.808 24.093 237.737 24.8955C232.356 26.9825 232.147 27.0686 228.714 28.6161C227.004 29.3858 225.493 30.0162 225.354 30.0162C225.215 30.0162 223.346 30.8182 221.2 31.7977C219.054 32.7778 216.461 33.917 215.438 34.3301C211.261 36.0153 192.469 45.7829 187.861 48.6639C186.757 49.354 185.768 49.9183 185.66 49.9183C185.345 49.9183 177.104 54.9287 175.262 56.2406C174.329 56.9049 173.436 57.4487 173.279 57.4487C172.319 57.4487 149.508 73.4166 144.108 77.8693C143.197 78.6196 141.51 79.9595 140.359 80.8471C138.096 82.5909 128.929 90.1257 127.954 91.0439C127.626 91.3521 125.575 93.1782 123.397 95.1012C93.8444 121.187 68.0294 153.308 46.88 190.308C43.2504 196.658 36.0495 210.678 34.2923 214.816C33.656 216.314 32.286 219.378 31.2474 221.627C27.0585 230.696 22.038 243.63 17.2021 257.814C14.1706 266.705 8.11319 290.765 6.0978 301.921C3.64405 315.504 2.29293 326.327 0.962245 343.07C0.072075 354.265 0 365.429 0 492.066C0 641.268 0.00430288 641.532 2.95827 663.384C4.77196 676.802 6.30434 684.894 9.9371 700.23C10.3147 701.826 11.3716 705.678 13.6989 713.946C25.9994 757.64 50.5305 801.323 83.3242 837.93C89.7711 845.127 107.848 862.497 114.908 868.278C119.157 871.758 123.193 875.078 123.876 875.656C124.559 876.234 126.74 877.865 128.724 879.28C130.708 880.696 133.779 882.955 135.55 884.301C137.321 885.647 141.749 888.623 145.39 890.915C149.032 893.207 152.383 895.65 152.838 896.344C153.293 897.038 154.23 899.731 154.921 902.328C158.591 916.129 162.66 926.885 169.966 942.1C174.633 951.818 178.01 957.643 185.045 968.1C196.705 985.433 207.005 996.955 224.022 1011.7C229.98 1016.87 249.078 1031.03 250.081 1031.03C250.272 1031.03 251.688 1031.84 253.227 1032.82C259.834 1037.03 274.2 1044.31 282.999 1047.92C292.121 1051.65 311.547 1057.95 318.686 1059.49C320.313 1059.85 322.613 1060.35 323.796 1060.61C327.742 1061.49 335.567 1062.7 341.277 1063.3C362.394 1065.54 367.662 1066 372.473 1066C378.692 1066 399.007 1064.38 406.359 1063.3C416.625 1061.8 421.339 1061.03 423.033 1060.6C424.068 1060.34 426.367 1059.77 428.142 1059.34C429.917 1058.91 432.822 1058.15 434.597 1057.64C436.372 1057.13 438.613 1056.6 439.577 1056.46C440.541 1056.31 441.463 1055.98 441.626 1055.72C441.789 1055.45 442.325 1055.24 442.82 1055.24C443.592 1055.24 448.956 1053.42 452.346 1052.02C452.938 1051.77 455.842 1050.66 458.801 1049.56C466.185 1046.79 476.45 1042.06 483.005 1038.41C491.456 1033.69 501.697 1027.33 502.009 1026.61C502.108 1026.38 502.453 1026.19 502.776 1026.19C503.244 1026.19 512.887 1019.21 513.932 1018.11C514.08 1017.96 515.521 1016.79 517.134 1015.53C528.068 1006.94 539.859 995.191 551.073 981.718C551.611 981.072 554.325 977.368 557.105 973.486C573.213 950.994 585.671 923.887 591.669 898.285C592.575 894.418 592.633 894.332 595.617 892.426C598.981 890.277 614.628 879.311 615.051 878.806C615.199 878.629 616.288 877.773 617.472 876.902C618.655 876.032 619.744 875.196 619.892 875.045C620.04 874.894 622.218 873.11 624.733 871.08C635.924 862.048 647.99 850.77 656.458 841.427C658.335 839.356 660.988 836.451 662.354 834.972C663.719 833.493 665.798 831.072 666.972 829.593C668.146 828.114 669.247 826.783 669.417 826.635C670.318 825.855 680.448 812.725 683.736 808.077C687.813 802.313 694.229 792.359 697.257 787.1C712.663 760.341 720.493 742.506 729.611 713.408C732.592 703.893 737.667 680.641 739.353 668.763C742.861 644.058 742.688 652.033 742.922 504.437C743.131 372.202 743.011 358.868 741.436 339.573C737.639 293.027 725.884 250.408 705.384 208.865C695.606 189.05 692.904 184.349 680.4 165.41C672.545 153.509 668.86 148.438 661.606 139.544C659.224 136.623 656.64 133.415 655.865 132.416C655.09 131.416 652.549 128.506 650.217 125.949C647.886 123.391 645.538 120.79 645 120.168C641.145 115.717 626.15 101.026 619.412 95.1012C617.226 93.1782 615.168 91.3521 614.84 91.0439C614.342 90.5748 606.787 84.3218 602.938 81.1924C602.341 80.7067 600.889 79.5959 599.711 78.724C598.534 77.8521 597.449 76.9968 597.302 76.8236C597.154 76.6504 595.701 75.5563 594.074 74.3924C592.447 73.2284 590.995 72.1316 590.847 71.9546C589.604 70.4679 563.633 53.4898 556.672 49.6138C553.697 47.9566 551.487 46.7113 548.49 45.003C545.829 43.4861 534.21 37.6731 528.455 34.9788C521.185 31.5761 519.488 30.8376 511.512 27.6022C507.37 25.9218 503.497 24.3452 502.906 24.0978C502.314 23.8504 500.015 23.0037 497.796 22.2168C495.577 21.4299 493.278 20.5929 492.686 20.3573C492.095 20.1217 489.432 19.2627 486.77 18.4489C484.107 17.635 480.598 16.5334 478.971 16.0004C474.176 14.4303 472.219 13.8892 465.659 12.3217C464.549 12.0566 460.858 11.1276 457.456 10.2568C451.037 8.61405 448.318 8.00946 441.051 6.60933C432.564 4.97413 431.344 4.75575 429.487 4.54059C428.452 4.42064 423.369 3.80099 418.192 3.16359C404.038 1.42189 399.675 1.04751 386.458 0.440769C372.476 -0.200936 369.848 -0.177799 352.034 0.747914ZM383.499 43.179C407.467 44.0192 428.637 47.0029 450.733 52.654C451.916 52.9568 453.852 53.4151 455.036 53.6722C460.099 54.7733 475.005 59.2754 478.164 60.6573C478.756 60.916 481.055 61.7702 483.274 62.555C496.948 67.3938 511.343 73.7539 522.807 80.0214C524.286 80.8304 527.191 82.4091 529.261 83.5301C531.332 84.6505 535.81 87.2598 539.212 89.328C542.614 91.3957 546.148 93.5166 547.065 94.0405C551.367 96.497 577.09 115.094 579.014 117.138C579.162 117.295 580.493 118.388 581.972 119.567C587.602 124.052 594.052 130.016 604.067 140C620.717 156.595 632.875 171.39 646.072 191.115C650.037 197.041 656.467 207.381 656.467 207.832C656.467 208.013 656.913 208.804 657.458 209.589C659.211 212.114 670.451 233.795 670.451 234.652C670.451 234.791 671.16 236.429 672.027 238.291C675.311 245.348 677.665 251.213 681.916 262.924C682.935 265.734 683.9 268.518 684.058 269.109C684.217 269.701 685.227 273.09 686.301 276.64C690.796 291.486 695.113 311.51 697.027 326.395C701.082 357.931 701.087 377.994 697.047 408.961C694.765 426.454 688.904 450.921 683.004 467.592C678.441 480.482 673.469 492.073 666.854 505.244C651.484 535.844 626.413 570.388 611.013 582.183C608.904 583.799 607.008 585.121 606.801 585.121C606.594 585.121 605.521 585.681 604.417 586.366C595.248 592.058 579.478 593.345 567.988 589.34C560.29 586.657 549.464 580.085 542.705 573.991C542.112 573.456 540.055 571.687 538.133 570.06C536.212 568.433 533.672 566.232 532.489 565.168C521.604 555.386 518.74 552.923 512.587 548.05C509.925 545.942 507.384 543.913 506.94 543.543C505.389 542.249 496.705 536.173 496.407 536.173C496.242 536.173 494.58 535.084 492.714 533.752C490.849 532.421 489.167 531.332 488.977 531.332C488.787 531.332 487.607 530.685 486.356 529.894C480.241 526.027 470.684 521.7 462.228 518.969C454.043 516.326 451.616 515.716 443.111 514.163C438.839 513.383 418.324 513.375 414.443 514.153C401.623 516.721 396.168 518.648 386.727 523.947C383.16 525.949 372.006 534.602 371.487 535.769C371.046 536.762 369.461 535.935 365.815 532.811C360.424 528.192 360.279 528.081 355.764 525.158C351.037 522.098 343.085 518.296 338.587 516.948C336.337 516.272 330.813 514.961 326.848 514.16C323.165 513.416 302.439 513.407 298.692 514.148C297.116 514.459 294.012 515.073 291.793 515.512C287.547 516.351 284.859 517.042 281.305 518.207C277.977 519.296 272.816 521.137 271.623 521.658C271.031 521.917 269.337 522.647 267.858 523.28C264.734 524.617 260.171 526.901 255.218 529.608C251.707 531.527 239.047 539.752 238.544 540.442C238.396 540.644 236.581 542.005 234.51 543.466C230.946 545.981 217.01 557.364 213.533 560.6C210.718 563.221 203.932 569.294 201.7 571.189C200.517 572.194 199.428 573.151 199.28 573.315C197.542 575.243 187.314 582.837 184.288 584.447C173.384 590.246 168.622 591.576 158.754 591.576C146.869 591.576 137.56 588.016 128.32 579.941C118.443 571.308 105.853 555.097 91.5461 532.589C88.6948 528.103 85.9071 523.625 85.3509 522.638C84.7942 521.651 82.9036 518.301 81.1491 515.195C79.394 512.089 76.8375 507.248 75.4676 504.437C71.8166 496.948 67.5023 487.773 67.5023 487.496C67.5023 487.364 66.9225 485.978 66.2141 484.417C64.9921 481.724 59.7721 468.046 58.869 465.171C58.6367 464.431 57.7992 461.769 57.008 459.254C56.2168 456.74 55.3707 453.956 55.1282 453.068C51.397 439.41 51.6046 440.241 49.494 430.477C47.7621 422.464 47.4189 420.515 46.0855 411.113C41.6933 380.153 41.611 359.014 45.7537 326.395C47.0241 316.395 48.5656 307.838 51.3755 295.197C51.7643 293.446 52.8148 289.465 54.7818 282.288C56.8085 274.892 61.2943 261.277 63.1994 256.738C63.4479 256.146 64.3133 253.847 65.1223 251.628C71.4804 234.194 83.541 211.102 97.0076 190.577C100.84 184.736 111.146 170.254 112.129 169.33C112.286 169.182 113.378 167.851 114.555 166.372C124.779 153.531 142.024 135.59 154.623 124.685C156.503 123.058 158.304 121.482 158.625 121.184C161.233 118.755 176.214 107.174 182.068 103.061C188.713 98.3926 205.442 87.5707 206.014 87.5707C206.147 87.5707 207.53 86.7865 209.088 85.8279C216.199 81.4517 235.798 71.7615 244.73 68.2066C245.321 67.971 246.652 67.4272 247.688 66.9974C248.723 66.5676 250.418 65.9136 251.453 65.5435C252.488 65.1734 253.82 64.6726 254.411 64.43C255.003 64.188 257.302 63.3457 259.521 62.5587C261.74 61.7718 264.039 60.9268 264.631 60.6815C265.222 60.4357 267.764 59.5783 270.278 58.7757C272.793 57.9732 275.334 57.1249 275.926 56.8899C276.518 56.6548 277.607 56.3133 278.346 56.1304C279.086 55.948 281.99 55.1788 284.801 54.4215C287.611 53.6641 290.758 52.8471 291.793 52.6056C292.828 52.3646 295.37 51.7605 297.441 51.2635C299.511 50.7665 302.295 50.1565 303.626 49.9086C304.957 49.6601 307.983 49.0743 310.349 48.6063C316.788 47.3342 326.194 45.9728 334.284 45.1428C350.19 43.5114 365.288 42.5002 370.59 42.711C372.365 42.7815 378.174 42.9924 383.499 43.179ZM232.673 206.919C225.451 214.302 219.323 220.733 219.056 221.21C218.789 221.687 218.647 222.433 218.741 222.867C218.835 223.3 238.708 243.46 262.903 267.667C299.185 303.967 306.826 311.86 306.511 312.716C306.3 313.288 294.934 325.01 281.253 338.766C267.573 352.523 253.545 366.683 250.08 370.233C246.615 373.783 238.004 382.549 230.943 389.713C221.582 399.212 218.105 403.079 218.105 403.993C218.105 405.767 244.916 432.357 246.711 432.364C247.632 432.368 251.67 428.601 262.21 417.907C270.05 409.953 293.017 386.722 313.25 366.283C333.482 345.844 350.952 327.9 352.074 326.408C355.403 321.977 356.521 318.403 356.539 312.135C356.554 306.915 356.487 306.612 354.344 302.184L352.133 297.618L300.177 245.711C266.755 212.32 247.791 193.75 247.013 193.65C246.058 193.528 243.056 196.306 232.673 206.919ZM359.161 400.438C358.64 400.651 358.488 405.191 358.488 420.571C358.488 439.121 358.55 440.429 359.43 440.436C359.947 440.44 397.018 440.454 441.807 440.466C508.281 440.485 523.325 440.36 523.689 439.786C523.934 439.4 524.139 430.581 524.143 420.188C524.15 405.214 524.005 401.172 523.444 400.706C522.939 400.287 499.413 400.125 441.285 400.141C396.486 400.153 359.531 400.287 359.161 400.438ZM48.0568 543.032C57.4426 559.579 67.9267 574.768 80.636 590.231C83.3108 593.485 85.6252 596.269 85.7791 596.417C85.9329 596.565 87.3841 598.259 89.0036 600.182C93.6352 605.681 96.7569 609.007 105.417 617.67C113.631 625.887 115.627 627.75 121.827 632.99C123.75 634.615 125.444 636.069 125.592 636.22C125.74 636.372 126.829 637.208 128.012 638.078C129.196 638.948 130.285 639.802 130.433 639.975C130.581 640.148 132.033 641.246 133.66 642.413C135.287 643.581 136.918 644.824 137.285 645.176C138.368 646.214 148.072 652.895 148.498 652.895C148.712 652.895 149.681 653.501 150.651 654.24C151.62 654.98 152.574 655.585 152.77 655.585C152.966 655.585 153.769 656.03 154.554 656.575C155.719 657.383 160.64 660.123 165.328 662.572C175.554 667.916 193.306 674.695 204.927 677.694C206.111 677.999 207.805 678.454 208.692 678.704C209.58 678.954 212.242 679.556 214.609 680.04C216.976 680.525 219.944 681.151 221.205 681.432C222.467 681.712 224.646 681.948 226.046 681.955C227.447 681.962 229.683 682.221 231.014 682.53C234.295 683.292 262.032 683.326 267.367 682.574C269.708 682.244 273.801 681.697 276.464 681.357C280.697 680.818 283.308 680.335 293.675 678.174C294.859 677.928 298.126 677.074 300.937 676.276C303.747 675.479 306.715 674.705 307.532 674.557C308.349 674.408 309.15 674.073 309.312 673.811C309.474 673.549 310.068 673.335 310.632 673.335C311.196 673.335 312.573 672.939 313.693 672.454C315.864 671.514 316.59 671.226 320.142 669.903C325.472 667.917 332.369 664.522 341.308 659.486C347.307 656.107 359.581 646.835 365.581 641.151C370.865 636.143 370.192 636.179 374.996 640.661C382.608 647.763 393.618 655.844 401.249 659.929C407.646 663.355 417.883 668.494 418.307 668.494C418.546 668.494 419.767 668.955 421.021 669.517C424.338 671.006 430.746 673.335 431.523 673.335C431.89 673.335 432.611 673.557 433.125 673.828C436.346 675.526 455.527 680.072 464.717 681.316C475.453 682.768 478.246 683.006 487.846 683.28C503.814 683.737 521.228 681.994 533.43 678.718C534.539 678.42 536.355 677.942 537.464 677.656C540.579 676.852 549.035 674.347 550.238 673.873C550.83 673.64 552.524 673.042 554.003 672.544C557.174 671.476 557.854 671.204 561.951 669.357C563.661 668.587 565.284 667.956 565.559 667.956C566.668 667.956 583.969 658.886 589.502 655.404C597.163 650.582 607.888 642.962 609.672 641.071C609.82 640.915 610.91 640.075 612.093 639.204C613.276 638.334 614.365 637.487 614.513 637.322C614.661 637.157 615.75 636.302 616.934 635.422C625.501 629.053 643.662 611.417 654.883 598.568C671.113 579.986 683.028 563.411 695.194 542.493C697.388 538.721 699.375 535.635 699.609 535.635C700.251 535.635 700.138 630.975 699.486 639.179C698.717 648.844 696.9 663.57 695.702 669.839C693.737 680.118 692.8 684.527 691.184 691.086C688.306 702.762 681.191 723.311 676.331 733.977C675.76 735.231 675.292 736.398 675.292 736.569C675.292 737.012 667.251 753.106 665.095 756.978C655.138 774.858 643.27 791.806 630.549 806.31C611.651 827.859 593.444 843.515 569.758 858.585C556.255 867.176 555.32 868.546 550.835 886.341C546.279 904.414 543.193 912.84 536.063 926.683C524.163 949.783 509.057 968.024 487.391 985.455C483.946 988.227 472.056 996.218 468.213 998.344C466.882 999.081 464.825 1000.24 463.642 1000.91C459.456 1003.31 446.973 1009.27 443.471 1010.55C440.417 1011.67 439.547 1012.01 437.402 1012.94C436.283 1013.42 435.009 1013.82 434.571 1013.82C434.134 1013.82 433.355 1014.04 432.841 1014.31C431.274 1015.13 421.576 1017.89 413.62 1019.78C389.007 1025.61 354.29 1025.36 330.519 1019.19C329.484 1018.92 326.994 1018.32 324.985 1017.84C319.194 1016.49 306.751 1012.31 301.586 1009.99C300.317 1009.42 298.259 1008.55 297.014 1008.06C293.53 1006.68 280.028 999.829 276.893 997.844C275.354 996.868 273.934 996.071 273.738 996.071C273.542 996.071 272.226 995.224 270.816 994.188C269.406 993.153 268.06 992.305 267.827 992.305C267.245 992.305 258.159 985.402 252.26 980.478C228.255 960.441 208.94 931.718 198.724 900.864C197.226 896.341 195.122 888.941 194.593 886.341C193.663 881.765 191.426 874.868 190.006 872.198C188.197 868.798 183.459 864.102 180.135 862.413C178.98 861.825 176.775 860.555 175.236 859.589C173.697 858.623 172.277 857.832 172.081 857.832C171.885 857.832 170.57 856.985 169.159 855.95C167.749 854.914 166.345 854.067 166.039 854.067C165.734 854.067 165.403 853.885 165.304 853.664C165.206 853.442 163.189 851.946 160.822 850.34C157.22 847.895 147.482 840.531 146.569 839.561C146.421 839.404 145.09 838.312 143.611 837.135C131.974 827.877 108.302 802.897 99.5049 790.596C98.3415 788.969 97.2265 787.516 97.028 787.368C95.9996 786.604 81.4869 764.275 81.4869 763.458C81.4869 763.345 80.36 761.357 78.9831 759.039C74.9023 752.172 68.3936 738.775 64.5225 729.276C60.2976 718.909 56.3733 708.226 55.1368 703.726C54.8926 702.839 53.9701 699.571 53.0859 696.465C52.2022 693.358 50.9823 688.759 50.375 686.245C49.3848 682.144 48.8733 679.673 47.0913 670.377C45.9876 664.62 44.1272 648.857 43.2972 638.228C42.7045 630.645 42.541 536.034 43.1192 535.456C43.5726 535.002 43.031 534.171 48.0568 543.032ZM319.493 555.822C324.606 556.798 326.738 557.493 329.982 559.239C342.082 565.755 347.731 574.055 347.731 585.318C347.731 597.534 340.293 608.894 325.582 619.145C322.718 621.141 320.226 622.773 320.043 622.773C319.86 622.773 318.451 623.575 316.912 624.554C312.529 627.343 300.171 632.993 298.453 632.993C298.036 632.993 297.274 633.206 296.761 633.466C293.843 634.944 282.609 637.68 270.009 639.98C256.518 642.444 233.923 641.724 221.515 638.435C220.379 638.134 217.392 637.382 214.878 636.764C208.39 635.17 201.773 633.131 197.397 631.376C191.796 629.13 192.162 628.308 200.356 624.737C201.095 624.414 202.975 623.357 204.534 622.386C206.093 621.416 207.482 620.622 207.621 620.622C207.98 620.622 216.972 614.252 218.953 612.593C219.863 611.832 221.436 610.564 222.449 609.776C223.462 608.988 224.801 607.899 225.424 607.355C226.048 606.812 228.079 605.036 229.938 603.409C231.798 601.782 233.735 600.088 234.243 599.644C236.261 597.883 241.12 593.459 243.923 590.831C252.094 583.171 268.73 570.06 270.28 570.06C270.575 570.06 270.816 569.818 270.816 569.522C270.816 569.226 271.07 568.984 271.38 568.984C271.69 568.984 273.203 568.187 274.741 567.213C277.514 565.457 283.614 562.396 287.759 560.679C288.942 560.189 290.331 559.558 290.844 559.276C291.358 558.995 292.217 558.764 292.754 558.764C293.29 558.764 293.959 558.563 294.24 558.316C294.521 558.07 296.567 557.467 298.785 556.977C301.004 556.487 303.787 555.867 304.971 555.598C308.369 554.827 314.808 554.926 319.493 555.822ZM437.497 555.817C442.089 556.629 445.568 557.468 447.506 558.23C452.893 560.349 457.784 562.378 459.07 563.027C461.509 564.259 466.521 567.118 467.758 567.985C468.544 568.535 469.347 568.984 469.544 568.984C470.37 568.984 483.429 578.707 485.425 580.808C485.573 580.964 487.388 582.446 489.459 584.103C491.53 585.759 493.972 587.815 494.886 588.672C495.8 589.53 498.681 592.167 501.289 594.534C503.897 596.901 506.295 599.082 506.62 599.38C506.944 599.678 509.024 601.493 511.243 603.414C513.461 605.335 515.398 607.046 515.546 607.218C516.322 608.118 529.563 617.932 530.001 617.932C530.284 617.932 530.597 618.114 530.696 618.336C530.888 618.768 535.243 621.698 535.694 621.698C535.842 621.698 537.239 622.492 538.798 623.463C540.357 624.433 542.6 625.552 543.784 625.949C546.218 626.766 547.818 627.984 547.818 629.02C547.818 629.76 541.691 632.993 540.288 632.993C539.836 632.993 538.138 633.485 536.515 634.085C534.892 634.685 532.717 635.392 531.682 635.655C520.027 638.622 517.087 639.294 513.125 639.897C493.198 642.93 476.491 641.814 452.884 635.872C441.24 632.941 427.393 626.86 416.309 619.809C414.534 618.68 412.961 617.602 412.813 617.412C412.665 617.223 411.576 616.371 410.393 615.519C406.916 613.014 400.805 606.618 398.615 603.193C394.144 596.198 392.7 591.801 392.68 585.121C392.668 580.946 392.903 579.42 393.964 576.784C396.507 570.463 399.84 566.282 405.354 562.502C414.704 556.089 425.886 553.764 437.497 555.817Z" fill="#94618E"/>
</svg>
